<svg xmlns="http://www.w3.org/2000/svg" viewBox="0 0 143.59 158.78"><defs><style>.cls-1{fill:#492a0b;}.cls-2{fill:#856285;}.cls-3{fill:#f1b887;}.cls-4{fill:#cb7240;}.cls-5{fill:#f9dac5;}</style></defs><g id="Слой_2" data-name="Слой 2"><g id="Слой_12" data-name="Слой 12"><path class="cls-1" d="M133,127a.78.78,0,0,0-.07-.33c-.29-.66-1.34-.79-1.61-.83-5.75-.79-11.19-3.15-16.91-4.15-12.29-2.14-18.73-5.62-21.28-7-.5-.26-1-.54-1.46-.87-3.36-2.17-8.5-5.5-12-11.78-3-5.37-1.53-7.19-5.48-17C71.58,78.4,70.4,77.9,70,74.17c-.66-5.44,1.21-9.76,3.28-14.4s3.27-5.52,12.13-17.94c6.14-8.61,6.83-10,9.75-12.39a32.23,32.23,0,0,1,12.6-6.57,41,41,0,0,1,7.66-.9c1.12,0,3.78-.14,3.93-.92.06-.3-.26-.78-.51-1.15a4.51,4.51,0,0,0-.35-.44h0a3,3,0,0,0-.31-.31l11.93-.45a2.26,2.26,0,0,1,.16.9,2.5,2.5,0,0,1-.61,1.48,3.8,3.8,0,0,1-1.45,1.1,34.89,34.89,0,0,1-6.67,2,54.93,54.93,0,0,0-5.81,1.77A34.83,34.83,0,0,0,105.07,32c-5.31,4.07-8.36,8.17-12.82,14.27-5.94,8.13-8.92,12.31-9.91,18.07-.48,2.75-.25,5.79.25,11.87.6,7.43,1,11.93,3.28,16.67,2.35,5,5.57,7.76,10,11.56,0,0,12.35,10.63,27.92,14.34,1.16.28,8.71,2,8.71,2a40.84,40.84,0,0,1,8.15,2.08,7.28,7.28,0,0,1,1.9,1.17c.59.49,1,.91,1.06,1.53a1.54,1.54,0,0,1-.09.58c-7.66,2-10.41,2.27-10.63,1.68C132.79,127.63,133,127.33,133,127Z"/><path class="cls-1" d="M143.5,126.14l-.09.2c-.14.2-.28.39-.43.58a79.4,79.4,0,1,1-13.41-109,2.74,2.74,0,0,1,.49.81l-11.93.45a3,3,0,0,1,.31.31c-5.7-5.58-11-7.81-14.82-8.82-3.32-.86-5.19-.68-13.83-2.27-8-1.46-6.8-1.69-9.29-1.9-6.41-.52-9.64,1.36-22.67,4.82-2.82.75-6.39.45-10.48,2.57a25,25,0,0,0-4.93,3.48C33.6,24.63,29.61,23.5,24,29.2c-1.41,1.45-3.12,4.58-6.63,10.8A108.34,108.34,0,0,0,9.26,56.68c-2.49,6.73-4.09,11-4.17,17.05,0,3.26.67,7,2.09,14.59C8.26,94.07,8.8,97,9.83,99.69c1.93,5.11,3.5,5.86,7.79,12.81,5.88,9.53,4.51,10.68,9,16.49a49.74,49.74,0,0,0,11.05,10.3c2.07,1.41,6.53,4.52,18,7.76,12.35,3.49,18.53,5.24,24.44,5.31,1.61,0,16.41,0,29-7,4.21-2.36,5.69-4.12,11.75-7,3.23-1.54,5.82-2.48,8.34-5.12A17.92,17.92,0,0,0,133,127c0,.36-.22.66-.14.85C133.09,128.41,135.84,128.15,143.5,126.14Z"/><path class="cls-2" d="M143,126.92c.15-.19.29-.38.43-.58A2.09,2.09,0,0,1,143,126.92Z"/><path class="cls-3" d="M132.94,126.64a.78.78,0,0,1,.07.33,17.92,17.92,0,0,1-3.81,6.25c-2.52,2.64-5.11,3.58-8.34,5.12-6.06,2.89-7.54,4.65-11.75,7-12.58,7.05-27.38,7-29,7-5.91-.07-12.09-1.82-24.44-5.31-11.47-3.24-15.93-6.35-18-7.76a49.74,49.74,0,0,1-11-10.3c-4.5-5.81-3.13-7-9-16.49-4.29-7-5.86-7.7-7.79-12.81C8.8,97,8.26,94.07,7.18,88.32,5.76,80.77,5.05,77,5.09,73.73c.08-6.06,1.68-10.32,4.17-17.05A108.34,108.34,0,0,1,17.41,40c3.51-6.22,5.22-9.35,6.63-10.8,5.57-5.7,9.56-4.57,18.38-11.87a25,25,0,0,1,4.93-3.48C51.44,11.73,55,12,57.83,11.28c13-3.46,16.26-5.34,22.67-4.82,2.49.21,1.33.44,9.29,1.9,8.64,1.59,10.51,1.41,13.83,2.27,3.86,1,9.12,3.24,14.82,8.82h0a4.51,4.51,0,0,1,.35.44c.25.37.57.85.51,1.15-.15.78-2.81.87-3.93.92a41,41,0,0,0-7.66.9,32.23,32.23,0,0,0-12.6,6.57c-2.92,2.42-3.61,3.78-9.75,12.39-8.86,12.42-10,13.24-12.13,17.94s-3.94,9-3.28,14.4C70.4,77.9,71.58,78.4,74.25,85c4,9.83,2.53,11.65,5.48,17,3.45,6.28,8.59,9.61,12,11.78.51.33,1,.61,1.46.87,2.55,1.34,9,4.82,21.28,7,5.72,1,11.16,3.36,16.91,4.15C131.6,125.85,132.65,126,132.94,126.64Z"/><path class="cls-4" d="M107.76,121.38c-.08.25,3.2,2.22,7.6,3.24,5.43,1.26,9.4.32,10.7,2.72a2.32,2.32,0,0,1,.32,1.54c-.44,2.22-5,2.22-10.95,3.9-8.29,2.36-17.26,5.91-19.39,6.67a62.07,62.07,0,0,1-6.13,2.05c-4.46,1.12-18.43,4.64-32.33-.38s-20.76-16-23.12-14.15c-1.37,1.07-.08,5.61,2.15,8.84,3.47,5.05,8.94,6.5,20.08,8.72,20.39,4.06,30.72,6,37.27,3.53s5.94-5.27,14.14-8.21c6.46-2.31,10.93-2.17,17.4-6.29,1.25-.8,6.79-4.05,6.19-6.19-.45-1.59-3.9-1.22-11-2.62C112.83,123.21,107.87,121.09,107.76,121.38Z"/><path class="cls-4" d="M83.63,9.16c1.19.77.89,1,2,1.75,3.25,2.09,6.62,1,10.2,1,6.57,0,13.28,4,13.21,6.59s-6.88,4.32-6.69,4.8,3.27-.78,8.08-1.89c5.36-1.23,6.4-1,6.57-1.64.77-2.88-18.84-9.25-22.77-9.6A20,20,0,0,0,91.64,10c-2.2.09-3,.61-5-.17S84,8,81.41,7.43a13.58,13.58,0,0,0-4.3-.12,8.29,8.29,0,0,0-3,.75C74.13,8.35,79.5,6.48,83.63,9.16Z"/><path class="cls-4" d="M12.29,86.9a20.26,20.26,0,0,1-3.47-8.44,30.28,30.28,0,0,0,3.47,11.63c2.26,4.34,4.67,6.6,4.23,10.35-.17,1.46-.61,1.8-.63,3.54,0,1.22.19,2.82,2.09,7,1.06,2.29,2.64,5.73,3.16,5.56s-1.93-4.86-.89-10.87c.7-4,2.29-4.58,1.77-7.13-.14-.67-.47-1.73-5.56-7.14C13.32,88,13.18,88.12,12.29,86.9Z"/><path class="cls-4" d="M89.12,32c.27.31-.22,1.13-3,5.32C76.22,52,75.07,52.8,74.56,52.56s-.48-1.94-.14-3c.58-1.78,2.21-3,4-4.3,1-.76,2.21-1.51,2.57-2.81a8.29,8.29,0,0,0,.19-.95c.19-1.42-.12-2.07.67-3.72C83.71,33.84,88.54,31.28,89.12,32Z"/><path class="cls-4" d="M67.3,81.88c-.82,2.34,1.26,4.14,2.78,8,1.76,4.39.35,5.36,2.28,8.72,1.77,3.09,4.41,4.77,4.67,4.55s-1.76-2-2-4.93c-.18-2,.64-2.18.63-3.92,0-3.42-3.2-3.86-5.3-9-1-2.46-1.25-4.68-2-4.68C67.76,80.61,67.35,81.74,67.3,81.88Z"/><path class="cls-4" d="M65.84,71.36c-.5,0-2,5.59-.88,6.19.41.21,1.18-.22,1.52-.76s.11-1.14-.26-3.28C65.92,71.74,66,71.37,65.84,71.36Z"/><path class="cls-4" d="M19.32,39.15c.64.66,3.69-.27,4.77-2.24.74-1.34.41-2.91,1.83-4.81.27-.36.55-.66.59-.71,1.5-1.62,3-2,2.87-2.31s-1-.35-1.94-.14a5.67,5.67,0,0,0-3,2.08C21.31,34.88,18.53,38.33,19.32,39.15Z"/><path class="cls-1" d="M74.23,13.78C69.51,13,65.29,15.05,64,18.32A7.46,7.46,0,0,0,64.38,24a8.33,8.33,0,0,0,8,4.55c3.25-.22,7-2.47,7.58-6.45A7.76,7.76,0,0,0,74.23,13.78Z"/><path class="cls-5" d="M71.3,15.21a6.12,6.12,0,0,0-4.93,2c-1.13,1.42-1.73,3.78-.89,4.49s3.26-.17,4.36-1.71c.79-1.1.48-2,1.52-2.9s2-.92,2-1.27S72.23,15.24,71.3,15.21Z"/><path class="cls-1" d="M41,98a7.77,7.77,0,0,0-5.22,1.68,6.6,6.6,0,0,0-2.36,3.63,6.68,6.68,0,0,0,2.65,6.82c4.44,2.74,12.8-2.43,12.5-6.44C48.37,101.2,45,99.08,41,98Z"/><path class="cls-5" d="M42.47,100c0,.18-.73.08-2,.38s-2.85.6-3,1.33,1.65,1.48,1.52,2.65-2.12,1.8-2.36,1.88c-.67.22-1.33.44-1.75.11-.88-.67-.35-2.86.43-4.21a5.58,5.58,0,0,1,3.59-2.94C40.71,98.86,42.5,99.73,42.47,100Z"/><path class="cls-1" d="M88.92,121.6c-1.58,2.18-.33,5.73,1.83,7.32,3,2.24,8.21.89,9.15-1.83.85-2.47-1.87-6-5-6.86C93.19,119.76,90.3,119.7,88.92,121.6Z"/><path class="cls-5" d="M93.2,121.37c-1.7.14-3.14,2.21-2.66,3.28a2,2,0,0,0,2.4.76c.52-.24.45-.63,1.14-1.27.93-.84,1.69-.71,1.77-1.13C96,122.41,94.57,121.24,93.2,121.37Z"/><path class="cls-1" d="M17.17,67.9C14.14,70.65,12.56,82,19.4,86c4.21,2.48,10.94,1.7,13.53-2.39,2.34-3.72.18-8.43-.47-9.86C30.28,69,25.62,66.42,23,66.21,22.51,66.17,19.35,65.91,17.17,67.9Z"/><path class="cls-5" d="M16.71,74.91c-.69,1.2-.76,3-.13,3.3s1.47-1.44,4-2.17c1.52-.44,2.6-.16,2.78-.67s-1-1-1.53-2.45.11-2.47-.29-2.67-1.37,1.35-4,3.7A3.8,3.8,0,0,0,16.71,74.91Z"/><path class="cls-1" d="M31.23,36.62c-2.1,2.76-.54,7.2,1.46,9.62,3.16,3.83,9.76,5.46,12.54,2.63s1.31-9.25-2.63-12.25C39.31,34.1,33.58,33.54,31.23,36.62Z"/><path class="cls-5" d="M33.27,36.46c-.93.15-1.5,1.87-1.64,3-.32,2.47,1.11,5.15,1.95,5.06s1.06-2.54,1.14-3.22a1.93,1.93,0,0,0-.18-1.32c-.35-.54-.82-.39-1.08-.83-.49-.82.7-2.17.27-2.58A.53.53,0,0,0,33.27,36.46Z"/><path class="cls-1" d="M60,118.73c-3.26,1.72-4.63,9.77-.38,12.88s11.43-.55,12.13-4.17C72.59,123,64,116.63,60,118.73Z"/><path class="cls-5" d="M61.23,120a3.1,3.1,0,0,0-2,1.89c-.58,1.33-.37,3.06.19,3.22s1.07-1.93,2.84-2.46,3.46.94,3.7.57S65,121.72,64,121,62.19,119.76,61.23,120Z"/></g></g></svg>