<svg xmlns="http://www.w3.org/2000/svg" viewBox="0 0 143.6 158.8">
  <defs>
    <style>
      .cls-1 {
        fill: #492a0b;
      }

      .cls-2 {
        fill: #f1b887;
      }

      .cls-3 {
        fill: #cb7240;
      }

      .cls-4 {
        fill: #f9dac5;
      }
    </style>
  </defs>
  <g id="Слой_2" data-name="Слой 2">
    <g id="Слой_12" data-name="Слой 12">
      <g>
        <path class="cls-1" d="M133,126.9a.4.4,0,0,0-.1-.3c-.2-.6-1.3-.8-1.6-.8-5.7-.8-11.2-3.1-16.9-4.1-12.3-2.2-18.7-5.7-21.3-7l-1.4-.9c-3.4-2.2-8.5-5.5-12-11.8s-1.5-7.1-5.4-17c-2.7-6.6-3.9-7.1-4.4-10.8-.6-5.5,1.3-9.8,3.3-14.4s3.3-5.6,12.2-18c6.1-8.6,6.8-9.9,9.7-12.4a31.9,31.9,0,0,1,12.6-6.5,39.5,39.5,0,0,1,7.7-.9c1.1-.1,3.8-.2,3.9-.9s-.2-.8-.5-1.2l-.5-.6-.2-.2,12-.4a2.2,2.2,0,0,1,.1.9,2.6,2.6,0,0,1-.6,1.5,4.9,4.9,0,0,1-1.4,1.1,37,37,0,0,1-6.7,1.9c-1.3.3-2.8.8-5.8,1.8A34,34,0,0,0,105.1,32c-5.3,4-8.4,8.1-12.8,14.3-6,8.1-9,12.2-10,18-.4,2.8-.2,5.8.3,11.9s1,11.9,3.3,16.7,5.5,7.7,10,11.5c0,0,12.3,10.6,27.9,14.4l8.7,2a35.7,35.7,0,0,1,8.1,2.1,6.9,6.9,0,0,1,1.9,1.1c.6.5,1.1.9,1.1,1.5s0,.5-.1.6c-7.7,2-10.4,2.3-10.6,1.7S133,127.3,133,126.9Z"/>
        <path class="cls-1" d="M143.5,126.1c0,.1-.1.2-.1.3l-.4.5A79.4,79.4,0,1,1,129.5,17.8a2.6,2.6,0,0,1,.6.9l-12,.4a32.7,32.7,0,0,0-14.5-8.5c-3.3-.8-5.2-.7-13.8-2.2S83,6.7,80.5,6.5c-6.4-.6-9.6,1.3-22.7,4.8-2.8.7-6.4.4-10.5,2.6a25.9,25.9,0,0,0-4.9,3.4C33.6,24.6,29.6,23.5,24,29.2c-1.4,1.4-3.1,4.6-6.6,10.8A103.8,103.8,0,0,0,9.3,56.7c-2.5,6.7-4.1,11-4.2,17,0,3.3.7,7.1,2.1,14.6,1.1,5.8,1.6,8.6,2.6,11.4,2,5.1,3.5,5.8,7.8,12.8,5.9,9.5,4.5,10.7,9,16.5a52.6,52.6,0,0,0,11.1,10.3c2.1,1.4,6.5,4.5,18,7.7s18.5,5.3,24.4,5.4c1.6,0,16.4,0,29-7.1,4.2-2.3,5.7-4.1,11.8-7,3.2-1.5,5.8-2.4,8.3-5.1a16,16,0,0,0,3.8-6.3c0,.4-.2.7-.1.9S135.8,128.1,143.5,126.1Z"/>
        <path class="cls-2" d="M143,126.9l.4-.5Z"/>
        <path class="cls-2" d="M132.9,126.6a.4.4,0,0,1,.1.3,16,16,0,0,1-3.8,6.3c-2.5,2.7-5.1,3.6-8.3,5.1-6.1,2.9-7.6,4.7-11.8,7-12.6,7.1-27.4,7.1-29,7.1-5.9-.1-12.1-1.9-24.4-5.4s-15.9-6.3-18-7.7A52.6,52.6,0,0,1,26.6,129c-4.5-5.8-3.1-7-9-16.5-4.3-7-5.8-7.7-7.8-12.8-1-2.8-1.5-5.6-2.6-11.4C5.8,80.8,5.1,77,5.1,73.7c.1-6,1.7-10.3,4.2-17A103.8,103.8,0,0,1,17.4,40c3.5-6.2,5.2-9.4,6.6-10.8,5.6-5.7,9.6-4.6,18.4-11.9a25.9,25.9,0,0,1,4.9-3.4c4.1-2.2,7.7-1.9,10.5-2.6C70.9,7.8,74.1,5.9,80.5,6.5c2.5.2,1.3.4,9.3,1.9s10.5,1.4,13.8,2.2a32.7,32.7,0,0,1,14.5,8.5l.2.2.5.6c.3.4.6.8.5,1.2s-2.8.8-3.9.9a39.5,39.5,0,0,0-7.7.9,31.9,31.9,0,0,0-12.6,6.5c-2.9,2.5-3.6,3.8-9.7,12.4-8.9,12.4-10.1,13.3-12.2,18s-3.9,8.9-3.3,14.4c.5,3.7,1.7,4.2,4.4,10.8,3.9,9.9,2.5,11.7,5.4,17s8.6,9.6,12,11.8l1.4.9c2.6,1.3,9,4.8,21.3,7,5.7,1,11.2,3.3,16.9,4.1C131.6,125.8,132.7,126,132.9,126.6Z"/>
      </g>
      <path class="cls-3" d="M12.3,73.7a19.6,19.6,0,0,1-3.5-8.4,29.6,29.6,0,0,0,3.5,11.6c2.3,4.3,4.7,6.6,4.2,10.4-.1,1.4-.6,1.8-.6,3.5s.2,2.8,2.1,6.9c1,2.3,2.6,5.8,3.1,5.6s-1.9-4.9-.9-10.9c.7-4,2.3-4.5,1.8-7.1-.1-.7-.5-1.7-5.5-7.1C13.3,74.8,13.2,74.9,12.3,73.7Z"/>
      <path class="cls-3" d="M67.3,81.9c-.8,2.3,1.3,4.1,2.8,7.9s.3,5.4,2.3,8.7,4.4,4.8,4.6,4.6-1.7-2-2-4.9.7-2.2.6-4c0-3.4-3.2-3.8-5.3-8.9-1-2.5-1.2-4.7-2-4.7S67.3,81.7,67.3,81.9Z"/>
      <path class="cls-3" d="M65.8,71.4c-.5-.1-2,5.5-.8,6.1s1.1-.2,1.5-.7.1-1.2-.3-3.3S66,71.4,65.8,71.4Z"/>
      <path class="cls-3" d="M19.3,39.1c.7.7,3.7-.2,4.8-2.2s.4-2.9,1.8-4.8l.6-.7c1.5-1.6,3-2,2.9-2.3s-1.1-.4-2-.2a5.8,5.8,0,0,0-3,2.1C21.3,34.9,18.5,38.3,19.3,39.1Z"/>
      <g>
        <path class="cls-1" d="M74.2,13.8C69.5,13,65.3,15,64,18.3a7.3,7.3,0,0,0,.4,5.7,8,8,0,0,0,7.9,4.5c3.3-.2,7.1-2.4,7.6-6.4A7.7,7.7,0,0,0,74.2,13.8Z"/>
        <path class="cls-4" d="M71.3,15.2a6.1,6.1,0,0,0-4.9,2c-1.2,1.4-1.8,3.8-.9,4.5s3.2-.2,4.3-1.7.5-2,1.6-2.9,2-.9,2-1.3S72.2,15.2,71.3,15.2Z"/>
      </g>
      <g>
        <path class="cls-1" d="M40.1,112.2c-2.5,3.4-.6,9,2.8,11.5s13,1.4,14.4-2.9-2.9-9.3-7.9-10.8C46.8,109.3,42.2,109.2,40.1,112.2Z"/>
        <path class="cls-4" d="M46.8,111.8c-2.7.3-4.9,3.5-4.2,5.2a3.2,3.2,0,0,0,3.8,1.2c.8-.4.7-1,1.8-2s2.6-1.1,2.8-1.8S49,111.6,46.8,111.8Z"/>
      </g>
      <g>
        <path class="cls-1" d="M31.4,54.9c-3,2.8-4.6,14.1,2.3,18.2,4.2,2.4,10.9,1.7,13.5-2.4s.2-8.5-.5-9.9c-2.2-4.8-6.8-7.4-9.4-7.6C36.8,53.2,33.6,52.9,31.4,54.9Z"/>
        <path class="cls-4" d="M31,61.9c-.7,1.2-.8,3-.2,3.3s1.5-1.4,4-2.1,2.6-.2,2.8-.7-1-1-1.5-2.5.1-2.4-.3-2.6-1.4,1.3-4,3.7Z"/>
      </g>
      <g>
        <path class="cls-1" d="M90.3,115.5c-3.3,1.7-4.6,9.8-.4,12.9s11.5-.6,12.1-4.2S94.3,113.4,90.3,115.5Z"/>
        <path class="cls-4" d="M91.5,116.7c-1.2.3-1.8,1.7-1.9,1.9s-.4,3.1.1,3.3,1.1-2,2.9-2.5,3.4.9,3.7.6-1-1.5-2-2.2A4.2,4.2,0,0,0,91.5,116.7Z"/>
      </g>
      <path class="cls-3" d="M108.2,121.8c-.1.2,3.2,2.2,7.6,3.2s9.4.4,10.7,2.8a2.6,2.6,0,0,1,.3,1.5c-.5,2.2-5.1,2.2-11,3.9-8.3,2.4-17.2,5.9-19.4,6.7a61.7,61.7,0,0,1-6.1,2c-4.4,1.1-18.4,4.7-32.3-.4s-20.8-16-23.1-14.1-.1,5.6,2.1,8.8c3.5,5.1,9,6.5,20.1,8.7,20.4,4.1,30.7,6.1,37.3,3.6s5.9-5.3,14.1-8.2c6.5-2.3,10.9-2.2,17.4-6.3,1.3-.8,6.8-4.1,6.2-6.2s-3.9-1.2-11-2.6S108.3,121.5,108.2,121.8Z"/>
      <path class="cls-3" d="M84,9.6c1.2.7.9,1,2.1,1.7,3.2,2.1,6.6,1,10.2,1,6.5,0,13.2,4,13.2,6.6s-6.9,4.3-6.7,4.8,3.3-.8,8.1-1.9,6.4-1,6.5-1.6c.8-2.9-18.8-9.3-22.7-9.6a13.6,13.6,0,0,0-2.7-.1c-2.1,0-3,.6-5-.2s-2.6-1.9-5.2-2.5a15.9,15.9,0,0,0-4.3-.1c-1.5.2-3,.6-3,.8S79.9,6.9,84,9.6Z"/>
    </g>
  </g>
</svg>
