<svg xmlns="http://www.w3.org/2000/svg" viewBox="0 0 143.59 158.78"><defs><style>.cls-1{fill:#856285;}.cls-2{fill:#c5aed3;}.cls-3{fill:#b199bf;}.cls-4{fill:#e0d1e8;}</style></defs><g id="Слой_2" data-name="Слой 2"><g id="Слой_10" data-name="Слой 10"><path class="cls-1" d="M133,127a.81.81,0,0,0-.07-.32c-.28-.67-1.34-.8-1.61-.83-5.75-.79-11.19-3.15-16.91-4.15-12.28-2.14-18.72-5.63-21.28-7-.49-.26-.94-.54-1.45-.87-3.37-2.18-8.5-5.5-12-11.79-2.95-5.37-1.53-7.18-5.49-17C71.59,78.4,70.41,77.9,70,74.17c-.65-5.44,1.21-9.76,3.28-14.4s3.27-5.53,12.13-17.94c6.15-8.61,6.84-10,9.75-12.39a32.3,32.3,0,0,1,12.6-6.57,40.16,40.16,0,0,1,7.66-.9c1.13,0,3.79-.14,3.94-.92.06-.31-.27-.78-.52-1.15a2.71,2.71,0,0,0-.35-.44h0a3,3,0,0,0-.31-.31l11.93-.46a2.26,2.26,0,0,1,.16.9,2.5,2.5,0,0,1-.61,1.49,3.6,3.6,0,0,1-1.45,1.09,34.21,34.21,0,0,1-6.66,2,52.78,52.78,0,0,0-5.81,1.76A35,35,0,0,0,105.08,32C99.76,36,96.72,40.15,92.25,46.25c-5.93,8.12-8.92,12.3-9.91,18.06-.48,2.76-.24,5.8.25,11.88.61,7.43,1,11.93,3.29,16.67,2.35,5,5.56,7.76,10,11.56,0,0,12.35,10.63,27.92,14.34l8.72,2a40.67,40.67,0,0,1,8.14,2.08,7.08,7.08,0,0,1,1.91,1.17c.58.49,1,.91,1.05,1.53a1.54,1.54,0,0,1-.09.58c-7.66,2-10.4,2.27-10.63,1.68-.07-.2.14-.49.14-.85Z"/><path class="cls-1" d="M143.5,126.14a1,1,0,0,1-.12.25l-.39.53A79.39,79.39,0,1,1,129.53,17.83s0,0,0,0a2.72,2.72,0,0,1,.51.83l-11.93.46a3,3,0,0,1,.31.31c-5.7-5.58-11-7.82-14.82-8.82-3.32-.86-5.19-.68-13.83-2.27-8-1.47-6.8-1.69-9.28-1.9-6.42-.53-9.65,1.36-22.68,4.82-2.82.75-6.38.45-10.48,2.57a24.58,24.58,0,0,0-4.93,3.48C33.6,24.63,29.61,23.5,24,29.2c-1.41,1.44-3.11,4.58-6.63,10.8A108.2,108.2,0,0,0,9.27,56.67c-2.5,6.73-4.1,11-4.17,17.06,0,3.26.66,7,2.08,14.58C8.26,94.07,8.8,97,9.83,99.68c1.94,5.12,3.51,5.87,7.79,12.82,5.88,9.53,4.51,10.67,9,16.49a49.69,49.69,0,0,0,11.06,10.29c2.07,1.42,6.52,4.53,18,7.77,12.34,3.49,18.52,5.24,24.44,5.31,1.61,0,16.4,0,29-7,4.21-2.36,5.69-4.12,11.75-7,3.23-1.55,5.81-2.48,8.33-5.12A17.92,17.92,0,0,0,133,127c0,.36-.21.65-.14.85C133.1,128.41,135.84,128.15,143.5,126.14Z"/><path class="cls-1" d="M143,126.92l.39-.53A2.25,2.25,0,0,1,143,126.92Z"/><path class="cls-2" d="M133,127h0a17.92,17.92,0,0,1-3.81,6.25c-2.52,2.64-5.1,3.57-8.33,5.12-6.06,2.89-7.54,4.65-11.75,7-12.59,7.05-27.38,7-29,7-5.92-.07-12.1-1.82-24.44-5.31-11.48-3.24-15.93-6.35-18-7.77A49.69,49.69,0,0,1,26.63,129c-4.5-5.82-3.13-7-9-16.49-4.28-7-5.85-7.7-7.79-12.82C8.8,97,8.26,94.07,7.18,88.31,5.76,80.76,5.06,77,5.1,73.73c.07-6.06,1.67-10.33,4.17-17.06A108.2,108.2,0,0,1,17.41,40c3.52-6.22,5.22-9.36,6.63-10.8,5.57-5.7,9.56-4.57,18.38-11.87a24.58,24.58,0,0,1,4.93-3.48C51.45,11.73,55,12,57.83,11.28c13-3.46,16.26-5.35,22.68-4.82,2.48.21,1.32.43,9.28,1.9,8.64,1.59,10.51,1.41,13.83,2.27,3.87,1,9.12,3.24,14.82,8.82h0a2.71,2.71,0,0,1,.35.44c.25.37.58.84.52,1.15-.15.78-2.81.87-3.94.92a40.16,40.16,0,0,0-7.66.9,32.3,32.3,0,0,0-12.6,6.57c-2.91,2.42-3.6,3.78-9.75,12.39-8.86,12.41-10,13.24-12.13,17.94s-3.93,9-3.28,14.4c.45,3.73,1.63,4.23,4.29,10.86,4,9.83,2.54,11.64,5.49,17,3.45,6.29,8.58,9.61,12,11.79.51.33,1,.61,1.45.87,2.56,1.33,9,4.82,21.28,7,5.72,1,11.16,3.36,16.91,4.15.27,0,1.33.16,1.61.83A.81.81,0,0,1,133,127Z"/><path class="cls-3" d="M128.57,129.62c-.51-1.07-7.33,1.2-13.14,3.16-24,8.08-22.51,8-25.51,8.71-4.47,1.13-18.44,4.65-32.34-.38s-20.76-16-23.11-14.14c-1.37,1.07-.09,5.6,2.14,8.84,3.48,5,9,6.5,20.09,8.72,20.39,4.05,30.72,6,37.26,3.53,7.31-2.79,5.89-5.44,14.15-8.21,5.1-1.71,13.15-3.21,19.07-8.34C127.9,130.89,128.78,130.05,128.57,129.62Z"/><path class="cls-3" d="M49.91,17.4a30,30,0,0,1,3.88-.28c8-.63,10.09-4.2,16.28-5.49,8.35-1.74,15.13,2.54,15.76,1,.32-.77-1.25-2.2-2.36-3-4.91-3.35-11.87-1.23-17,.41-6.78,2.16-6,3.49-11.89,4.8-2.95.67-6,1-9.82,2.73a14.17,14.17,0,0,0-5.25,4.16c-.18.24-1.27,1.66-1,1.89C38.9,24.1,43.07,18.73,49.91,17.4Z"/><path class="cls-3" d="M12.3,86.89a20.18,20.18,0,0,1-3.48-8.43A30.17,30.17,0,0,0,12.3,90.08c2.26,4.35,4.67,6.6,4.23,10.36-.17,1.46-.61,1.8-.63,3.54,0,1.22.18,2.82,2.08,7,1.06,2.29,2.64,5.73,3.16,5.55s-1.93-4.85-.89-10.86c.7-4,2.3-4.58,1.77-7.14-.13-.66-.47-1.72-5.55-7.13C13.33,88,13.18,88.12,12.3,86.89Z"/><path class="cls-3" d="M116.38,20.55c0,.25-.44.41-4.61.88-7.64.87-10,.77-11.75,2.65-.8.88-1.25,1.94-1.51,1.83s-.31-1.9.63-3c1.3-1.56,3.19-.48,6.31-1.83,2.36-1,2.11-2,4-2.52C112.7,17.6,116.51,19.7,116.38,20.55Z"/><path class="cls-3" d="M67.31,81.87c-.83,2.35,1.25,4.15,2.78,8,1.75,4.39.34,5.36,2.27,8.72,1.78,3.09,4.41,4.77,4.67,4.54s-1.76-2-2-4.92c-.17-2,.65-2.18.63-3.92,0-3.42-3.19-3.87-5.3-9-1-2.45-1.24-4.67-2-4.67C67.76,80.61,67.35,81.74,67.31,81.87Z"/><path class="cls-3" d="M65.85,71.36c-.51,0-2,5.59-.89,6.19.42.21,1.18-.22,1.52-.76s.11-1.14-.25-3.29C65.93,71.74,66,71.37,65.85,71.36Z"/><path class="cls-3" d="M102.78,123.49c-.3.87,1.92,3.16,4.17,3.22,1.53,0,2.78-1,5.11-.57a7.62,7.62,0,0,1,.9.2c2.13.6,3.1,1.74,3.37,1.51s-.16-1.09-.76-1.8a5.54,5.54,0,0,0-3.24-1.74C107.48,123.3,103.15,122.4,102.78,123.49Z"/><path class="cls-1" d="M74.54,21.26c-4.73-.81-8.94,1.27-10.23,4.55a7.34,7.34,0,0,0,.38,5.68,8.32,8.32,0,0,0,8,4.55c3.26-.21,7-2.47,7.58-6.44A7.75,7.75,0,0,0,74.54,21.26Z"/><path class="cls-4" d="M71.6,22.69a6.11,6.11,0,0,0-4.92,2c-1.13,1.43-1.73,3.78-.89,4.49s3.26-.16,4.36-1.71c.79-1.1.48-1.95,1.52-2.9s2-.92,2-1.26S72.54,22.72,71.6,22.69Z"/><path class="cls-1" d="M33.73,32.92a7.76,7.76,0,0,0-5.21,1.68,6.42,6.42,0,0,0,.29,10.45c4.44,2.74,12.8-2.43,12.5-6.45C41.13,36.16,37.72,34,33.73,32.92Z"/><path class="cls-4" d="M35.22,35c0,.17-.73.08-2,.38s-2.84.6-3,1.32c-.22.88,1.65,1.48,1.52,2.66s-2.12,1.8-2.37,1.88c-.66.21-1.33.44-1.75.11-.87-.68-.35-2.87.44-4.21a5.58,5.58,0,0,1,3.59-2.95C33.47,33.82,35.26,34.69,35.22,35Z"/><path class="cls-1" d="M52.92,62.91c-1.58,2.18-.33,5.73,1.83,7.32,3,2.24,8.22.88,9.15-1.83.86-2.47-1.86-6-5-6.86C57.2,61.06,54.31,61,52.92,62.91Z"/><path class="cls-4" d="M57.2,62.67c-1.69.15-3.13,2.22-2.65,3.29a2,2,0,0,0,2.4.75c.52-.23.44-.63,1.14-1.26.92-.84,1.69-.72,1.76-1.14C60,63.72,58.58,62.55,57.2,62.67Z"/><path class="cls-1" d="M36.24,75.28c-3,2.75-4.6,14.12,2.24,18.14C42.68,95.9,49.41,95.13,52,91c2.35-3.72.19-8.43-.46-9.86-2.19-4.77-6.84-7.37-9.44-7.58A8.07,8.07,0,0,0,36.24,75.28Z"/><path class="cls-4" d="M35.79,82.3c-.7,1.19-.76,3-.14,3.29s1.48-1.44,4-2.16c1.53-.44,2.6-.16,2.78-.68s-1-1-1.52-2.45.11-2.47-.3-2.67-1.36,1.35-4,3.7A3.88,3.88,0,0,0,35.79,82.3Z"/><path class="cls-1" d="M78.68,110.7c-2.11,2.76-.54,7.2,1.46,9.62,3.16,3.83,9.75,5.47,12.53,2.63S94,113.7,90.05,110.7C86.75,108.18,81,107.62,78.68,110.7Z"/><path class="cls-4" d="M80.71,110.54c-.92.15-1.49,1.87-1.64,3-.32,2.46,1.11,5.14,2,5s1.06-2.54,1.14-3.22A1.94,1.94,0,0,0,82,114c-.35-.54-.83-.39-1.09-.83-.48-.82.7-2.16.27-2.57A.54.54,0,0,0,80.71,110.54Z"/><path class="cls-1" d="M47.83,117.81c-3.25,1.72-4.63,9.77-.38,12.89s11.43-.56,12.13-4.17C60.43,122.08,51.81,115.71,47.83,117.81Z"/><path class="cls-4" d="M49.07,119a3.12,3.12,0,0,0-2,1.89c-.58,1.34-.37,3.06.19,3.23s1.07-1.93,2.85-2.47,3.45.94,3.69.57-.94-1.45-2-2.18S50,118.85,49.07,119Z"/></g></g></svg>