<svg xmlns="http://www.w3.org/2000/svg" viewBox="0 0 143.58 158.78"><defs><style>.cls-1{fill:#856285;}.cls-2{fill:#c5aed3;}.cls-3{fill:#b199bf;}.cls-4{fill:#e0d1e8;}</style></defs><g id="Слой_2" data-name="Слой 2"><g id="Слой_12" data-name="Слой 12"><path class="cls-1" d="M133,126.92a1,1,0,0,0-.07-.29c-.29-.66-1.35-.79-1.61-.83-5.75-.79-11.2-3.14-16.91-4.14-12.29-2.15-18.73-5.63-21.28-7-.5-.26-1-.53-1.46-.86-3.36-2.18-8.5-5.51-12-11.79-3-5.37-1.53-7.19-5.48-17-2.67-6.64-3.85-7.14-4.3-10.87-.65-5.44,1.22-9.76,3.29-14.4s3.27-5.52,12.12-17.93c6.15-8.61,6.84-10,9.76-12.39a32.14,32.14,0,0,1,12.59-6.57,40.27,40.27,0,0,1,7.67-.9c1.12-.06,3.78-.15,3.93-.92.06-.31-.26-.78-.51-1.15a4.54,4.54,0,0,0-.52-.62l-.14-.14,11.91-.46a2.1,2.1,0,0,1,.16.9,2.56,2.56,0,0,1-.6,1.49,3.78,3.78,0,0,1-1.46,1.09,33.9,33.9,0,0,1-6.66,2,54.93,54.93,0,0,0-5.81,1.77A34.83,34.83,0,0,0,105.07,32C99.76,36,96.71,40.14,92.25,46.25c-5.94,8.12-8.93,12.3-9.92,18.06-.47,2.76-.24,5.8.26,11.87.6,7.44,1,11.93,3.28,16.68,2.35,5,5.57,7.76,10,11.56,0,0,12.35,10.63,27.91,14.33l8.72,2a40.84,40.84,0,0,1,8.15,2.08,7.17,7.17,0,0,1,1.9,1.18c.59.49,1,.91,1.05,1.52a1.36,1.36,0,0,1-.09.58c-7.65,2-10.4,2.28-10.62,1.69C132.79,127.61,133,127.29,133,126.92Z"/><path class="cls-1" d="M143.49,126.13a1.69,1.69,0,0,1-.12.27l-.39.52A79.39,79.39,0,1,1,129.52,17.83a2.37,2.37,0,0,1,.53.85l-11.91.46c-5.59-5.35-10.72-7.53-14.52-8.51-3.32-.86-5.2-.69-13.83-2.28-8-1.46-6.81-1.69-9.29-1.89-6.41-.53-9.64,1.35-22.68,4.82-2.81.75-6.38.45-10.48,2.57a25.19,25.19,0,0,0-4.92,3.47C33.6,24.63,29.61,23.5,24,29.19c-1.41,1.45-3.12,4.59-6.63,10.8A107.88,107.88,0,0,0,9.26,56.67c-2.49,6.73-4.09,11-4.17,17,0,3.26.67,7,2.09,14.59,1.07,5.76,1.61,8.63,2.65,11.37,1.93,5.11,3.5,5.86,7.79,12.81,5.87,9.54,4.5,10.68,9,16.49a49.49,49.49,0,0,0,11.05,10.3c2.07,1.41,6.52,4.52,18,7.77,12.35,3.49,18.52,5.23,24.44,5.3,1.61,0,16.4.05,29-7,4.21-2.36,5.69-4.12,11.75-7,3.23-1.54,5.82-2.48,8.34-5.11a17.71,17.71,0,0,0,3.81-6.3c0,.37-.22.69-.14.9C133.09,128.41,135.84,128.15,143.49,126.13Z"/><path class="cls-1" d="M143,126.92l.39-.52A2.15,2.15,0,0,1,143,126.92Z"/><path class="cls-2" d="M132.94,126.63a1,1,0,0,1,.07.29,17.71,17.71,0,0,1-3.81,6.3c-2.52,2.63-5.11,3.57-8.34,5.11-6.06,2.89-7.54,4.65-11.75,7-12.59,7.06-27.38,7-29,7-5.92-.07-12.09-1.81-24.44-5.3-11.48-3.25-15.93-6.36-18-7.77a49.49,49.49,0,0,1-11-10.3c-4.51-5.81-3.14-6.95-9-16.49-4.29-6.95-5.86-7.7-7.79-12.81-1-2.74-1.58-5.61-2.65-11.37C5.76,80.76,5.05,77,5.09,73.72c.08-6,1.68-10.32,4.17-17A107.88,107.88,0,0,1,17.41,40c3.51-6.21,5.22-9.35,6.63-10.8,5.57-5.69,9.56-4.56,18.38-11.87a25.19,25.19,0,0,1,4.92-3.47C51.44,11.73,55,12,57.82,11.28c13-3.47,16.27-5.35,22.68-4.82,2.48.2,1.32.43,9.29,1.89,8.63,1.59,10.51,1.42,13.83,2.28,3.8,1,8.93,3.16,14.52,8.51l.14.14a4.54,4.54,0,0,1,.52.62c.25.37.57.84.51,1.15-.15.77-2.81.86-3.93.92a40.27,40.27,0,0,0-7.67.9,32.14,32.14,0,0,0-12.59,6.57c-2.92,2.41-3.61,3.78-9.76,12.39-8.85,12.41-10,13.24-12.12,17.93s-3.94,9-3.29,14.4c.45,3.73,1.63,4.23,4.3,10.87,4,9.82,2.53,11.64,5.48,17,3.45,6.28,8.59,9.61,12,11.79.51.33,1,.6,1.46.86,2.55,1.34,9,4.82,21.28,7,5.71,1,11.16,3.35,16.91,4.14C131.59,125.84,132.65,126,132.94,126.63Z"/><path class="cls-3" d="M107.76,121.38c-.08.24,3.2,2.22,7.6,3.23,5.43,1.26,9.4.33,10.7,2.72a2.34,2.34,0,0,1,.32,1.55c-.44,2.21-5.06,2.21-10.95,3.89-8.29,2.37-17.26,5.91-19.39,6.67a56.75,56.75,0,0,1-6.13,2.05c-4.46,1.12-18.43,4.65-32.33-.38s-20.77-16-23.12-14.15c-1.37,1.07-.08,5.61,2.15,8.85,3.47,5,8.94,6.49,20.08,8.71,20.39,4.06,30.72,6,37.26,3.54s6-5.27,14.15-8.21c6.45-2.31,10.93-2.18,17.39-6.3,1.26-.8,6.79-4.05,6.19-6.19-.44-1.59-3.9-1.22-11-2.62C112.83,123.2,107.86,121.08,107.76,121.38Z"/><path class="cls-3" d="M83.63,9.15c1.19.77.89,1,2,1.76,3.25,2.08,6.62,1,10.19,1,6.58,0,13.28,4,13.22,6.6s-6.88,4.32-6.69,4.8c.13.33,3.27-.79,8.08-1.9,5.36-1.23,6.4-1,6.57-1.64.77-2.87-18.84-9.25-22.77-9.59A17.88,17.88,0,0,0,91.64,10c-2.2.08-3,.61-5-.18S84,8,81.41,7.43a13.37,13.37,0,0,0-4.3-.13,8.2,8.2,0,0,0-3,.76C74.12,8.35,79.5,6.48,83.63,9.15Z"/><path class="cls-3" d="M12.29,86.89a20.29,20.29,0,0,1-3.47-8.43,30.09,30.09,0,0,0,3.47,11.62c2.26,4.35,4.67,6.6,4.23,10.36-.17,1.45-.61,1.79-.63,3.53,0,1.22.18,2.82,2.09,7,1.05,2.3,2.64,5.74,3.15,5.56s-1.92-4.86-.88-10.86c.7-4,2.29-4.58,1.77-7.14-.14-.67-.47-1.73-5.56-7.14C13.32,88,13.17,88.12,12.29,86.89Z"/><path class="cls-3" d="M89.12,32c.27.32-.23,1.14-3,5.32C76.21,52,75.07,52.79,74.56,52.55s-.48-1.94-.14-3c.58-1.77,2.21-3,4-4.3,1-.75,2.2-1.5,2.56-2.81a6.09,6.09,0,0,0,.2-1c.18-1.42-.13-2.07.66-3.72C83.71,33.83,88.53,31.27,89.12,32Z"/><path class="cls-3" d="M67.3,81.87c-.82,2.35,1.26,4.14,2.78,8,1.76,4.39.34,5.35,2.27,8.71,1.78,3.09,4.42,4.77,4.68,4.55s-1.76-2-2-4.93c-.18-2,.64-2.17.63-3.91,0-3.42-3.2-3.87-5.31-9-1-2.46-1.24-4.68-2-4.67C67.76,80.61,67.35,81.74,67.3,81.87Z"/><path class="cls-3" d="M65.84,71.35c-.5,0-2,5.59-.88,6.19.41.22,1.18-.22,1.51-.76s.12-1.14-.25-3.28C65.92,71.74,66,71.37,65.84,71.35Z"/><path class="cls-3" d="M19.32,39.14c.64.67,3.69-.26,4.77-2.24.74-1.34.41-2.91,1.83-4.81a6.62,6.62,0,0,1,.59-.7c1.5-1.63,3-2,2.87-2.31s-1-.36-1.95-.15a5.59,5.59,0,0,0-3,2.09C21.3,34.87,18.53,38.32,19.32,39.14Z"/><path class="cls-1" d="M74.23,13.77C69.5,13,65.29,15,64,18.32A7.34,7.34,0,0,0,64.38,24a8.33,8.33,0,0,0,8,4.55c3.25-.21,7-2.47,7.57-6.44A7.75,7.75,0,0,0,74.23,13.77Z"/><path class="cls-4" d="M71.29,15.2a6.11,6.11,0,0,0-4.92,2c-1.13,1.43-1.73,3.78-.89,4.49s3.26-.16,4.36-1.71c.79-1.1.48-1.95,1.52-2.9s2-.92,2-1.26S72.23,15.23,71.29,15.2Z"/><path class="cls-1" d="M41,98a7.67,7.67,0,0,0-5.21,1.67,6.42,6.42,0,0,0,.29,10.45c4.44,2.74,12.8-2.43,12.5-6.44C48.37,101.19,45,99.07,41,98Z"/><path class="cls-4" d="M42.46,100c0,.18-.73.08-2,.38s-2.84.61-3,1.33c-.22.88,1.65,1.48,1.52,2.65s-2.12,1.81-2.37,1.88c-.66.22-1.33.44-1.75.12-.87-.68-.35-2.87.44-4.22a5.58,5.58,0,0,1,3.59-2.94C40.71,98.85,42.5,99.73,42.46,100Z"/><path class="cls-1" d="M88.92,121.6c-1.58,2.18-.33,5.72,1.83,7.32,3,2.24,8.21.88,9.15-1.83.85-2.48-1.87-6-5-6.87C93.19,119.75,90.3,119.69,88.92,121.6Z"/><path class="cls-4" d="M93.19,121.36c-1.69.15-3.13,2.21-2.65,3.28a2,2,0,0,0,2.4.76c.52-.24.44-.63,1.14-1.26.93-.85,1.69-.72,1.77-1.14C96,122.4,94.57,121.24,93.19,121.36Z"/><path class="cls-1" d="M17.16,67.89C14.14,70.64,12.56,82,19.4,86c4.2,2.47,10.94,1.7,13.52-2.4,2.35-3.72.19-8.43-.46-9.86C30.27,69,25.62,66.41,23,66.2A8.12,8.12,0,0,0,17.16,67.89Z"/><path class="cls-4" d="M16.71,74.91c-.7,1.2-.76,3-.14,3.29s1.48-1.44,4-2.16c1.53-.44,2.61-.16,2.79-.68s-1-1-1.53-2.45.11-2.47-.3-2.67-1.36,1.35-4,3.7A3.88,3.88,0,0,0,16.71,74.91Z"/><path class="cls-1" d="M31.23,36.61c-2.11,2.76-.54,7.2,1.46,9.62,3.16,3.83,9.75,5.47,12.54,2.63s1.3-9.25-2.63-12.25C39.31,34.09,33.58,33.53,31.23,36.61Z"/><path class="cls-4" d="M33.27,36.45c-.93.15-1.5,1.87-1.65,3-.32,2.46,1.12,5.14,2,5s1.06-2.54,1.14-3.22a1.94,1.94,0,0,0-.18-1.32c-.35-.54-.82-.39-1.08-.83-.49-.82.7-2.16.26-2.57A.52.52,0,0,0,33.27,36.45Z"/><path class="cls-1" d="M60,118.72c-3.26,1.72-4.63,9.77-.38,12.89s11.43-.56,12.12-4.17C72.59,123,64,116.62,60,118.72Z"/><path class="cls-4" d="M61.23,120a3.12,3.12,0,0,0-2,1.89c-.58,1.34-.37,3.06.19,3.22s1.07-1.92,2.84-2.46,3.45.94,3.7.57S65,121.72,64,121,62.18,119.75,61.23,120Z"/></g></g></svg>